<svg xmlns="http://www.w3.org/2000/svg" xmlns:xlink="http://www.w3.org/1999/xlink" width="250" zoomAndPan="magnify" viewBox="0 0 187.5 187.499992" height="250" preserveAspectRatio="xMidYMid meet" version="1.0"><defs><filter x="0%" y="0%" width="100%" height="100%" id="a9a2dbf27e"><feColorMatrix values="0 0 0 0 1 0 0 0 0 1 0 0 0 0 1 0 0 0 1 0" color-interpolation-filters="sRGB"/></filter><mask id="7b9a4a4c64"><g filter="url(#a9a2dbf27e)"><rect x="-18.75" width="225" fill="#000000" y="-18.749999" height="224.99999" fill-opacity="0.12"/></g></mask><clipPath id="dd1a1e6186"><rect x="0" width="187" y="0" height="187"/></clipPath></defs><g mask="url(#7b9a4a4c64)"><g transform="matrix(1, 0, 0, 1, 0, 0)"><g clip-path="url(#dd1a1e6186)"><path fill="#d0d5d9" d="M 186.144531 0 L 0.859375 0 C 0.621094 0 0.417969 0.0820312 0.25 0.25 C 0.0820312 0.417969 0 0.621094 0 0.859375 L 0 186.144531 C 0 186.378906 0.0820312 186.582031 0.25 186.75 C 0.417969 186.917969 0.621094 187 0.859375 187 L 186.144531 187 C 186.378906 187 186.582031 186.917969 186.75 186.75 C 186.917969 186.582031 187 186.378906 187 186.144531 L 187 0.859375 C 187 0.621094 186.917969 0.417969 186.75 0.25 C 186.582031 0.0820312 186.378906 0 186.144531 0 Z M 138.964844 92.644531 L 94.359375 92.644531 L 94.359375 48.035156 L 138.964844 48.035156 Z M 140.679688 48.035156 L 185.285156 48.035156 L 185.285156 92.644531 L 140.679688 92.644531 Z M 94.359375 46.320312 L 94.359375 1.714844 L 138.964844 1.714844 L 138.964844 46.320312 Z M 92.644531 46.320312 L 48.035156 46.320312 L 48.035156 1.714844 L 92.644531 1.714844 Z M 92.644531 48.035156 L 92.644531 92.644531 L 48.035156 92.644531 L 48.035156 48.035156 Z M 46.320312 92.644531 L 1.714844 92.644531 L 1.714844 48.035156 L 46.320312 48.035156 Z M 1.714844 94.359375 L 46.320312 94.359375 L 46.320312 138.964844 L 1.714844 138.964844 Z M 48.035156 94.359375 L 92.644531 94.359375 L 92.644531 138.964844 L 48.035156 138.964844 Z M 92.644531 140.679688 L 92.644531 185.285156 L 48.035156 185.285156 L 48.035156 140.679688 Z M 94.359375 140.679688 L 138.964844 140.679688 L 138.964844 185.285156 L 94.359375 185.285156 Z M 94.359375 138.964844 L 94.359375 94.359375 L 138.964844 94.359375 L 138.964844 138.964844 Z M 140.679688 94.359375 L 185.285156 94.359375 L 185.285156 138.964844 L 140.679688 138.964844 Z M 185.285156 46.320312 L 140.679688 46.320312 L 140.679688 1.714844 L 185.285156 1.714844 Z M 46.320312 1.714844 L 46.320312 46.320312 L 1.714844 46.320312 L 1.714844 1.714844 Z M 1.714844 140.679688 L 46.320312 140.679688 L 46.320312 185.285156 L 1.714844 185.285156 Z M 140.679688 185.285156 L 140.679688 140.679688 L 185.285156 140.679688 L 185.285156 185.285156 Z M 140.679688 185.285156 " fill-opacity="1" fill-rule="nonzero"/></g></g></g></svg>